<?xml version="1.0" standalone="no"?>
<!DOCTYPE svg PUBLIC "-//W3C//DTD SVG 20010904//EN"
 "http://www.w3.org/TR/2001/REC-SVG-20010904/DTD/svg10.dtd">
<svg version="1.0" xmlns="http://www.w3.org/2000/svg"
 width="700.000000pt" height="700.000000pt" viewBox="0 0 700.000000 700.000000"
 preserveAspectRatio="xMidYMid meet">
<metadata>
Created by potrace 1.14, written by Peter Selinger 2001-2017
</metadata>
<g transform="translate(0.000000,700.000000) scale(0.100000,-0.100000)"
fill="#000000" stroke="none">
<path d="M1460 6736 c-82 -18 -129 -44 -188 -105 -57 -57 -90 -119 -98 -186
-3 -22 -7 -51 -10 -65 -6 -37 -5 -4630 2 -4740 3 -52 7 -106 9 -119 2 -13 7
-45 11 -70 32 -233 232 -470 469 -555 l60 -22 2 -254 c2 -149 7 -268 14 -287
16 -50 69 -85 127 -85 44 0 61 8 183 88 74 49 136 92 137 97 2 4 7 7 12 7 4 0
47 26 95 59 l87 59 225 -150 c123 -82 238 -154 254 -158 56 -16 110 6 153 64
20 26 21 41 21 277 l0 249 890 0 c893 0 1179 3 1225 14 14 3 44 7 67 10 160
19 284 84 413 216 104 105 178 247 194 370 3 25 8 56 11 70 13 63 16 422 15
2095 0 1764 -1 1901 -15 2025 -25 232 -141 418 -343 551 -98 65 -190 94 -362
115 -36 4 -375 8 -755 8 l-690 1 -68 90 c-37 50 -74 97 -81 106 -7 9 -15 21
-17 26 -5 13 -54 75 -98 126 -19 21 -53 48 -75 60 l-41 22 -890 2 c-667 1
-904 -2 -945 -11z"/>
</g>
</svg>
