<?xml version="1.0" standalone="no"?>
<!DOCTYPE svg PUBLIC "-//W3C//DTD SVG 20010904//EN"
 "http://www.w3.org/TR/2001/REC-SVG-20010904/DTD/svg10.dtd">
<svg version="1.0" xmlns="http://www.w3.org/2000/svg"
 width="700.000000pt" height="700.000000pt" viewBox="0 0 700.000000 700.000000"
 preserveAspectRatio="xMidYMid meet">
<metadata>
Created by potrace 1.14, written by Peter Selinger 2001-2017
</metadata>
<g transform="translate(0.000000,700.000000) scale(0.100000,-0.100000)"
fill="#000000" stroke="none">
<path d="M1060 4030 l0 -2970 580 0 580 0 2 -529 3 -529 205 94 c113 52 212
94 221 94 8 0 107 -42 220 -93 l204 -94 3 529 2 528 1288 2 1287 3 57 27 c80
37 152 107 191 187 l32 66 0 2685 0 2685 -29 60 c-53 107 -154 188 -268 215
-28 6 -851 10 -2310 10 l-2268 0 0 -2970z m2167 2068 l693 -693 0 -352 c0
-194 -3 -353 -7 -353 -10 0 -2083 2073 -2083 2082 0 5 159 8 352 8 l353 0 692
-692z m510 510 l183 -182 0 -353 c0 -194 -3 -353 -7 -353 -10 0 -1063 1053
-1063 1062 0 5 158 8 352 8 l352 0 183 -182z m181 155 c4 -27 -5 -29 -30 -6
-24 22 -23 35 5 31 14 -2 23 -11 25 -25z m708 16 c3 -6 3 -1248 -1 -2760 l-8
-2749 -243 0 -244 0 0 2760 0 2760 244 0 c168 0 247 -3 252 -11z m1007 -13
c22 -11 51 -37 65 -59 l27 -41 3 -365 3 -366 -421 420 c-231 231 -420 424
-420 428 0 5 159 7 353 5 322 -3 355 -5 390 -22z m-4143 -2741 l0 -2755 -110
0 -110 0 0 2755 0 2755 110 0 110 0 0 -2755z m2430 5 l0 -355 -1105 1105
-1105 1105 0 355 0 355 1105 -1105 1105 -1105 0 -355z m1810 1245 l0 -360
-445 445 -445 445 0 360 0 360 445 -445 445 -445 0 -360z m-1810 -2265 l0
-355 -1105 1105 -1105 1105 0 355 0 355 1105 -1105 1105 -1105 0 -355z m1810
1245 l0 -360 -445 445 -445 445 0 360 0 360 445 -445 445 -445 0 -360z m-1810
-2265 l0 -355 -1105 1105 -1105 1105 0 355 0 355 1105 -1105 1105 -1105 0
-355z m1810 1245 l0 -360 -445 445 -445 445 0 360 0 360 445 -445 445 -445 0
-360z m-1810 -1937 l0 -28 -327 0 -328 0 -777 777 -778 778 0 355 0 355 1105
-1105 c931 -931 1105 -1109 1105 -1132z m1810 922 l0 -355 -445 445 -445 445
0 355 0 355 445 -445 445 -445 0 -355z m-3132 -948 l-353 -2 -267 267 -268
268 0 355 0 355 620 -620 620 -620 -352 -3z m3132 213 c0 -46 -7 -84 -19 -110
-39 -86 -87 -104 -271 -105 l-135 0 -232 232 -233 233 0 355 0 355 445 -445
445 -445 0 -70z m-3905 -105 l110 -110 -113 0 -112 0 0 110 c0 61 1 110 3 110
1 0 52 -49 112 -110z m3095 -35 l74 -75 -77 0 -77 0 0 75 c0 41 1 75 3 75 1 0
36 -34 77 -75z m-2050 -735 c0 -148 -2 -270 -4 -270 -2 0 -50 21 -107 46 -115
53 -106 53 -241 -10 l-78 -35 0 269 0 270 215 0 215 0 0 -270z"/>
</g>
</svg>
