<?xml version="1.0" encoding="UTF-8"?>
<svg width="900px" height="900px" viewBox="0 0 900 900" version="1.1" xmlns="http://www.w3.org/2000/svg" xmlns:xlink="http://www.w3.org/1999/xlink">
    <title>favicon</title>
    <defs>
        <linearGradient x1="7.49952476%" y1="0%" x2="50%" y2="100%" id="linearGradient-1">
            <stop stop-color="#FF4D00" offset="0%"></stop>
            <stop stop-color="#FF6A2A" offset="100%"></stop>
        </linearGradient>
        <linearGradient x1="37.3019968%" y1="-6.66631012%" x2="68.1133281%" y2="111.228326%" id="linearGradient-2">
            <stop stop-color="#4BDFFF" offset="0%"></stop>
            <stop stop-color="#03A9F4" offset="100%"></stop>
        </linearGradient>
        <linearGradient x1="17.5249169%" y1="-8.77700456%" x2="88.0398671%" y2="106.108144%" id="linearGradient-3">
            <stop stop-color="#56575E" offset="0%"></stop>
            <stop stop-color="#272629" offset="100%"></stop>
        </linearGradient>
        <path d="M5.45,27.3 C0,37.996 0,51.997 0,80 L0,216 L0,217 L0,600 C0,656.005 0,684.008 10.899,705.399 C20.487,724.215 35.785,739.513 54.601,749.101 C75.992,760 103.995,760 160,760 L442,760 C498.005,760 526.008,760 547.399,749.101 C566.215,739.513 581.513,724.215 591.101,705.399 C602,684.008 602,656.005 602,600 L602,216 C602,159.995 602,131.992 591.101,110.601 C581.513,91.785 566.215,76.487 547.399,66.899 C526.008,56 498.005,56 442,56 L323.152,56 L298.468,22.409 C292.432,14.197 289.415,10.09 285.564,7.127 C282.154,4.502 278.281,2.542 274.146,1.348 C269.478,0 264.382,0 254.191,0 L80,0 C51.997,0 37.996,0 27.3,5.45 C17.892,10.243 10.243,17.892 5.45,27.3 Z" id="path-4"></path>
        <linearGradient x1="49.9377678%" y1="-12.3026316%" x2="50.0728961%" y2="109.473684%" id="linearGradient-6">
            <stop stop-color="#56575E" offset="0%"></stop>
            <stop stop-color="#272629" offset="100%"></stop>
        </linearGradient>
    </defs>
    <g id="favicon" stroke="none" stroke-width="1" fill="none" fill-rule="evenodd">
        <g id="Icon" transform="translate(149, 32)">
            <path d="M123,646.666 C94.832,646.666 72,669.498 72,697.666 L72,818.666 C72,825.304 75.654,831.404 81.507,834.536 C87.359,837.669 94.461,837.325 99.985,833.643 L156,796.299 L212.015,833.643 C217.539,837.325 224.641,837.669 230.493,834.536 C236.346,831.404 240,825.304 240,818.666 L240,697.666 C240,669.498 217.168,646.666 189,646.666 L123,646.666 Z" id="Path" fill="url(#linearGradient-1)"></path>
            <path d="M5.45,27.3 C0,37.996 0,51.997 0,80 L0,216 L0,217 L0,600 C0,656.005 0,684.008 10.899,705.399 C20.487,724.215 35.785,739.513 54.601,749.101 C75.992,760 103.995,760 160,760 L442,760 C498.005,760 526.008,760 547.399,749.101 C566.215,739.513 581.513,724.215 591.101,705.399 C602,684.008 602,656.005 602,600 L602,216 C602,159.995 602,131.992 591.101,110.601 C581.513,91.785 566.215,76.487 547.399,66.899 C526.008,56 498.005,56 442,56 L323.152,56 L298.468,22.409 C292.432,14.197 289.415,10.09 285.564,7.127 C282.154,4.502 278.281,2.542 274.146,1.348 C269.478,0 264.382,0 254.191,0 L80,0 C51.997,0 37.996,0 27.3,5.45 C17.892,10.243 10.243,17.892 5.45,27.3 Z" id="Path" fill="url(#linearGradient-2)"></path>
            <path d="M90,238 C80.059,238 72,246.059 72,256 C72,265.941 80.059,274 90,274 L398,274 C407.941,274 416,265.941 416,256 C416,246.059 407.941,238 398,238 L90,238 Z M90,337.375 C80.059,337.375 72,345.434 72,355.375 C72,365.316 80.059,373.375 90,373.375 L398,373.375 C407.941,373.375 416,365.316 416,355.375 C416,345.434 407.941,337.375 398,337.375 L90,337.375 Z M72,454.75 C72,444.809 80.059,436.75 90,436.75 L398,436.75 C407.941,436.75 416,444.809 416,454.75 C416,464.691 407.941,472.75 398,472.75 L90,472.75 C80.059,472.75 72,464.691 72,454.75 Z M90,536.125 C80.059,536.125 72,544.184 72,554.125 C72,564.066 80.059,572.125 90,572.125 L244,572.125 C253.941,572.125 262,564.066 262,554.125 C262,544.184 253.941,536.125 244,536.125 L90,536.125 Z" id="Shape" fill="url(#linearGradient-3)"></path>
            <g id="Clipped">
                <mask id="mask-5" fill="white">
                    <use xlink:href="#path-4"></use>
                </mask>
                <g id="Path"></g>
                <rect id="Rectangle" fill="url(#linearGradient-6)" fill-rule="nonzero" mask="url(#mask-5)" x="478" y="51" width="32" height="731"></rect>
            </g>
        </g>
    </g>
</svg>