<?xml version="1.0" encoding="iso-8859-1"?>
<!-- Uploaded to: SVG Repo, www.svgrepo.com, Generator: SVG Repo Mixer Tools -->
<svg version="1.1" id="Layer_1" xmlns="http://www.w3.org/2000/svg" xmlns:xlink="http://www.w3.org/1999/xlink" 
	 viewBox="0 0 512 512" xml:space="preserve">
<polygon style="fill:#CD5421;" points="217.665,499.91 193.835,489.031 170.005,499.91 170.005,426.866 217.665,426.866 "/>
<polygon style="fill:#FF6A2A;" points="217.665,499.91 193.835,489.031 170.005,499.91 170.005,447.588 217.665,447.588 "/>
<path style="fill:#64C1DF;" d="M406.232,426.866H85.046V7.771h321.186c11.445,0,20.722,9.277,20.722,20.722v377.652
	C426.954,417.589,417.677,426.866,406.232,426.866z"/>
<rect x="85.042" y="7.771" style="fill:#37A0BD;" width="32.119" height="419.095"/>
<rect x="294.331" y="7.771" style="fill:#DDB92E;" width="51.804" height="419.095"/>
<rect x="294.331" y="7.771" style="fill:#F9D85C;" width="51.804" height="209.548"/>
<path d="M406.232,0H77.276v434.637h84.959V512l31.601-14.427L225.436,512v-77.363h180.796c15.71,0,28.492-12.782,28.492-28.492
	V28.492C434.724,12.782,421.943,0,406.232,0z M163.859,419.095l-38.923-38.923v-52.576l91.5,91.5h-52.577V419.095z M124.936,81.947
	V29.371L286.564,191v52.576L124.936,81.947z M286.564,265.556v52.576L124.936,156.503v-52.576L286.564,265.556z M124.936,178.484
	l161.629,161.629v52.576L124.935,231.06L124.936,178.484L124.936,178.484z M286.564,19.906l-4.364-4.365h4.365v4.365H286.564z
	 M286.564,41.887v52.576l-78.921-78.922h52.576L286.564,41.887z M286.564,116.443v52.576L133.087,15.541h52.576L286.564,116.443z
	 M124.936,402.152l16.943,16.943h-16.943V402.152z M124.936,305.616V253.04l161.629,161.629v4.426h-48.15L124.936,305.616z
	 M302.106,15.541h36.263v403.554h-36.263V15.541z M353.91,407.458l11.637,11.637H353.91V407.458z M353.91,258.345l65.273,65.273
	v52.576l-65.273-65.273V258.345z M353.91,236.365v-52.576l65.273,65.273v52.576L353.91,236.365z M353.91,161.808v-52.576
	l65.273,65.273v52.576L353.91,161.808z M353.91,87.252V34.676l65.273,65.273v52.576L353.91,87.252z M419.183,28.492v49.476
	l-62.426-62.427h49.476C413.374,15.541,419.183,21.351,419.183,28.492z M92.817,15.541h16.577v403.554H92.817V15.541z
	 M209.894,487.82l-16.059-7.33l-16.059,7.33v-53.183h32.119V487.82z M406.232,419.095h-18.704l-33.618-33.618v-52.576l65.273,65.273
	v7.97C419.183,413.286,413.374,419.095,406.232,419.095z"/>
</svg>